<svg xmlns="http://www.w3.org/2000/svg" width="54.656" height="81.322" viewBox="0 0 54.656 81.322"><g transform="translate(-17.884 -2.215)"><path d="M63.924,9.628A27.1,27.1,0,0,0,43.47,2.271,27.327,27.327,0,0,0,28.913,51.478a.636.636,0,0,1,.273.5v6.384a5.956,5.956,0,0,0,5.949,5.949H43.7v1.6a5.662,5.662,0,0,0-4.331,5.493V74.8A5.662,5.662,0,0,0,43.7,80.293v1.918a1.325,1.325,0,1,0,2.651,0V80.293A5.662,5.662,0,0,0,50.685,74.8V71.411a5.662,5.662,0,0,0-4.332-5.493v-1.6h8.936a5.956,5.956,0,0,0,5.949-5.949V51.981a.633.633,0,0,1,.271-.5A27.325,27.325,0,0,0,63.924,9.628ZM48.034,71.411V74.8a3,3,0,0,1-1.681,2.685V76.052a1.325,1.325,0,0,0-2.651,0v1.433a3,3,0,0,1-1.68-2.685V71.411a3,3,0,0,1,1.68-2.684v.424a1.325,1.325,0,1,0,2.651,0v-.424A3,3,0,0,1,48.034,71.411ZM59.927,49.353a3.3,3.3,0,0,0-1.339,2.628v6.386a3.3,3.3,0,0,1-3.3,3.3H35.135a3.3,3.3,0,0,1-3.3-3.3V51.983A3.3,3.3,0,0,0,30.5,49.352,24.677,24.677,0,0,1,43.634,4.916q.8-.049,1.595-.049A24.677,24.677,0,0,1,69.89,29.545,24.476,24.476,0,0,1,59.927,49.353Z" transform="translate(0 0)" fill="#ff5537"/><path d="M46.588,11.444A19.477,19.477,0,1,0,66.064,30.921,19.5,19.5,0,0,0,46.588,11.444Zm0,36.3A16.826,16.826,0,1,1,63.414,30.921,16.845,16.845,0,0,1,46.588,47.747Z" transform="translate(-1.376 -1.376)" fill="#ff5537"/><path d="M54.084,28.336a1.325,1.325,0,1,0,0-2.651H50.176V23.594a1.325,1.325,0,1,0-2.651,0v2.091H46.381a4.094,4.094,0,0,0-4.089,4.089v.121a4.094,4.094,0,0,0,4.089,4.09h1.144v2.877H43.618a1.325,1.325,0,0,0,0,2.651h3.908V41.6a1.325,1.325,0,1,0,2.651,0v-2.09H51.32a4.089,4.089,0,0,0,0-8.178H50.176v-3ZM51.32,33.985a1.438,1.438,0,0,1,0,2.877H50.176V33.985Zm-3.795-2.651H46.381a1.44,1.44,0,0,1-1.438-1.439v-.121a1.44,1.44,0,0,1,1.438-1.438h1.144Z" transform="translate(-3.639 -2.99)" fill="#ff5537"/><path d="M51.162,62.835a1.671,1.671,0,0,0-3.341,0,1.636,1.636,0,0,0,.977,1.488l-.76,1.63a.29.29,0,0,0,.263.413h2.38a.29.29,0,0,0,.263-.413l-.76-1.63A1.636,1.636,0,0,0,51.162,62.835Z" transform="translate(-4.463 -8.793)" fill="#ff5537"/></g></svg>