<?xml version="1.0" encoding="utf-8"?>
<!-- Generator: Adobe Illustrator 24.3.0, SVG Export Plug-In . SVG Version: 6.00 Build 0)  -->
<svg version="1.1" id="Layer_1" xmlns="http://www.w3.org/2000/svg" xmlns:xlink="http://www.w3.org/1999/xlink" x="0px" y="0px"
	 viewBox="0 0 91.7 89.4" style="enable-background:new 0 0 91.7 89.4;" xml:space="preserve">
<style type="text/css">
	.st0{fill:#FF5537;}
</style>
<path class="st0" d="M72.2,84H21.4c-1.2,0-2.2,1-2.2,2.2c0,1.2,1,2.2,2.2,2.2h50.8c1.2,0,2.2-1,2.2-2.2C74.4,84.9,73.4,84,72.2,84z"
	/>
<path class="st0" d="M49.5,30c-0.7,1.3-1.7,2.1-2.7,2.1s-2-0.8-2.7-2.1h-0.1v47.9H29.7c-1.2,0-2.1,1-2.1,2.1s1,2.1,2.1,2.1h34.2
	c1.2,0,2.1-1,2.1-2.1s-1-2.1-2.1-2.1H49.5L49.5,30L49.5,30z"/>
<g>
	<path class="st0" d="M22.5,46c0.7,0,1.3-0.6,1.3-1.3c0-0.7-0.6-1.3-1.3-1.3h-3.9v-2.1c0-0.7-0.6-1.3-1.3-1.3S16,40.6,16,41.3v2.1
		h-1.1c-2.3,0-4.1,1.8-4.1,4.1v0.1c0,2.3,1.8,4.1,4.1,4.1H16v2.9H12c-0.7,0-1.3,0.6-1.3,1.3s0.6,1.3,1.3,1.3H16v2.1
		c0,0.7,0.6,1.3,1.3,1.3s1.3-0.6,1.3-1.3l0,0v-2.1h1.1c2.3,0,4.1-1.8,4.1-4.1S22,49,19.7,49h-1.1v-3L22.5,46z M19.7,51.7
		c0.8,0,1.4,0.6,1.4,1.4s-0.6,1.4-1.4,1.4h-1.1v-2.9H19.7z M16,49h-1.1c-0.8,0-1.4-0.6-1.4-1.4v-0.1c0-0.8,0.6-1.4,1.4-1.4H16V49z"
		/>
	<g>
		<path class="st0" d="M12,56.7h4.4v2.6c0,0.5,0.4,0.8,0.8,0.8s0.8-0.4,0.8-0.8v-2.6h1.6c0.5,0,1-0.1,1.5-0.3l-9.7,0.1
			C11.7,56.6,11.9,56.7,12,56.7z"/>
		<path class="st0" d="M11.2,47.5L11.2,47.5l2-3.2C12,44.9,11.2,46.1,11.2,47.5z"/>
		<path class="st0" d="M23.3,44.7c0-0.5-0.4-0.8-0.8-0.8H22l0.9,1.6C23.1,45.3,23.3,45,23.3,44.7z"/>
		<path class="st0" d="M89.8,34.9l-0.8,0L75.2,12.5c0.8-0.5,1.5-1,2-1.7c1.4-1.5,2.2-3.6,1.8-5.6c-0.3-1.6-2-4.9-4.4-3.4
			c-1,0.6-1.5,1.9-0.9,2.9c0.3,0.5,0.8,1,0.9,1.5c0.2,0.7-0.2,1.5-0.7,2c-0.5,0.6-1.3,0.9-2,1.2C66,12.2,59.6,9.3,53.4,9.5
			c-4.9,0.2-7.8,2.3-8.7,3.1c-1.3-1.3-2.8-1.9-3.9-1.5c-1.1,0.4-1.8,1.8-2,3.7c-1.2,0-4.8,0.3-8.6,3.4c-4.8,3.9-7.8,10.3-14,12.3
			c-0.7,0.2-1.5,0.4-2.3,0.4c-0.8-0.1-1.5-0.4-1.8-1.1c-0.3-0.5-0.2-1.2-0.3-1.8c-0.2-1.1-1.3-1.8-2.6-1.6c-2.8,0.4-1.9,4-1.1,5.4
			c1,1.7,2.9,2.8,5,3c0.9,0.1,1.7,0.1,2.6-0.1l-13.1,22l-0.8,0c-0.5,0-0.8,0.4-0.7,0.9c0.8,5,7.8,8.8,16.3,8.7s15.4-4.2,16.1-9.2
			c0.1-0.5-0.3-0.9-0.7-0.9l-0.8,0L18.4,33.9c1.5-0.6,2.9-1.4,4.1-2.3c2.6-2.1,4.4-4.8,7.2-6.7c3-2.1,7.2-2.9,10.8-2.2l0,0
			c1.9,4.1,4.8,6.7,6.8,5.9c2.1-0.8,2.6-4.6,1.3-8.9c2.3-2.9,6-5,9.7-5.4c3.3-0.3,6.5,0.5,9.8,0.4c1.5-0.1,3.1-0.4,4.6-0.9
			L59.7,35.6l-0.8,0c-0.5,0-0.8,0.4-0.7,0.9c0.8,5,7.9,8.8,16.4,8.6c8.5-0.2,15.4-4.3,16-9.3C90.7,35.3,90.3,34.9,89.8,34.9z
			 M22.5,42.9c1,0,1.8,0.8,1.8,1.8c0,0.7-0.4,1.3-1,1.6l5.7,9.9l-6,0.1c-0.8,0.8-2,1.4-3.2,1.4h-0.6v1.6c0,1-0.8,1.8-1.8,1.8
			s-1.8-0.8-1.8-1.8v-1.6H12c-0.8,0-1.4-0.5-1.7-1.2l-4.8,0.1l4.9-7.8c-0.1-0.4-0.2-0.8-0.2-1.2v-0.1c0-2.3,1.7-4.1,3.8-4.5l3.9-6.2
			l3.5,6.1H22.5z M62.6,35.6l11.3-20.3L86.1,35L62.6,35.6z"/>
	</g>
</g>
</svg>
