<svg xmlns="http://www.w3.org/2000/svg" width="77.584" height="77.584" viewBox="0 0 77.584 77.584"><g transform="translate(0 0)"><path d="M53.738,70.884a1.523,1.523,0,0,1-1.509-1.712L54.1,54.319H48.59A1.521,1.521,0,0,1,47.238,52.1L57.78,31.671a1.521,1.521,0,0,1,2.868.83L59.459,46.11h6.382a1.521,1.521,0,0,1,1.329,2.262L55.068,70.1A1.521,1.521,0,0,1,53.738,70.884ZM51.087,51.276h4.734a1.521,1.521,0,0,1,1.509,1.711l-1.1,8.78,7.026-12.614H57.8A1.521,1.521,0,0,1,56.283,47.5l.662-7.573Z" transform="translate(-18.423 -12.074)" fill="#ff5537"/><path d="M14.227,40.8a1.538,1.538,0,0,1-.217-.015,1.522,1.522,0,0,1-1.291-1.722,31.508,31.508,0,0,1,31.057-26.9,1.521,1.521,0,0,1,0,3.043A28.45,28.45,0,0,0,15.732,39.492,1.522,1.522,0,0,1,14.227,40.8Z" transform="translate(-4.972 -4.76)" fill="#ff5537"/><path d="M52.432,18.143a1.522,1.522,0,0,1-1.193-2.464l5.381-6.813-5.976-6.3A1.521,1.521,0,1,1,52.85.474l7.792,8.208-7.015,8.882A1.518,1.518,0,0,1,52.432,18.143Z" transform="translate(-19.658 0)" fill="#ff5537"/><path d="M39.28,93.816a1.538,1.538,0,0,1-.217-.015,31.507,31.507,0,0,1-26.9-31.057,1.521,1.521,0,0,1,3.043,0A28.449,28.449,0,0,0,39.493,90.788a1.521,1.521,0,0,1-.214,3.028Z" transform="translate(-4.76 -23.963)" fill="#ff5537"/><path d="M1.521,70.558A1.521,1.521,0,0,1,.474,67.933l8.208-7.792,8.882,7.014a1.521,1.521,0,0,1-1.885,2.388l-6.813-5.38-6.3,5.976A1.516,1.516,0,0,1,1.521,70.558Z" transform="translate(0 -23.54)" fill="#ff5537"/><path d="M62.744,96.9a1.521,1.521,0,1,1,0-3.043A28.449,28.449,0,0,0,90.788,69.57,1.522,1.522,0,1,1,93.8,70,31.508,31.508,0,0,1,62.744,96.9Z" transform="translate(-23.963 -26.719)" fill="#ff5537"/><path d="M69.037,115.813a1.515,1.515,0,0,1-1.1-.474l-7.792-8.208,7.014-8.882a1.521,1.521,0,0,1,2.388,1.885l-5.38,6.813,5.977,6.3a1.522,1.522,0,0,1-1.1,2.569Z" transform="translate(-23.54 -38.229)" fill="#ff5537"/><path d="M95.381,45.3a1.521,1.521,0,0,1-1.521-1.521A28.449,28.449,0,0,0,69.572,15.731,1.522,1.522,0,1,1,70,12.718,31.507,31.507,0,0,1,96.9,43.775,1.521,1.521,0,0,1,95.381,45.3Z" transform="translate(-26.719 -4.972)" fill="#ff5537"/><path d="M107.132,60.641,98.25,53.627a1.521,1.521,0,0,1,1.885-2.388l6.813,5.38,6.3-5.976a1.521,1.521,0,1,1,2.095,2.207Z" transform="translate(-38.229 -19.658)" fill="#ff5537"/></g></svg>