<?xml version="1.0" encoding="utf-8"?>
<!-- Generator: Adobe Illustrator 24.1.0, SVG Export Plug-In . SVG Version: 6.00 Build 0)  -->
<svg version="1.1" id="Layer_1" xmlns="http://www.w3.org/2000/svg" xmlns:xlink="http://www.w3.org/1999/xlink" x="0px" y="0px"
	 viewBox="0 0 994 395" style="enable-background:new 0 0 994 395;" xml:space="preserve">
<style type="text/css">
	.st0{fill:#537088;}
	.st1{fill:#FF6F4A;}
</style>
<g>
	<path class="st0" d="M785.3,356.4c1-5,2.7-8.6,5.3-10.7c2.6-2.1,5.6-3.2,9.2-3.2c1.6,0,3.3,0.3,4.9,0.8c1.6,0.6,3.1,1.4,4.4,2.6
		c1.3,1.2,2.3,2.6,3.1,4.4c0.8,1.8,1.3,3.8,1.3,6.1H785.3z M823.3,363.3c0-4-0.5-7.7-1.5-11.1c-1-3.4-2.4-6.3-4.4-8.7
		c-1.9-2.4-4.4-4.3-7.3-5.7c-2.9-1.3-6.4-2-10.3-2c-3.6,0-6.8,0.7-9.8,2c-2.9,1.3-5.4,3.2-7.5,5.6c-2,2.4-3.7,5.3-4.8,8.7
		c-1.2,3.4-1.7,7.2-1.7,11.5c0,4.6,0.6,8.7,1.8,12.2c1.2,3.5,3,6.4,5.3,8.8c2.3,2.3,5,4.1,8.2,5.4c3.2,1.2,6.8,1.8,10.8,1.8
		c5.2,0,9.4-1.1,12.5-3.3c3.1-2.2,5.6-5,7.5-8.3l-5.7-3.8c-1.4,2.4-3.3,4.4-5.6,6c-2.3,1.6-5.1,2.5-8.5,2.5
		c-5.8,0-10.3-1.9-13.3-5.7c-3.1-3.8-4.6-9.1-4.6-15.8H823.3z M754.8,344.1h14.1v-7.1h-14v-14.5h-8.6v14.5h-9.2v7.1h9.2v35
		c0,4.3,1.1,7.4,3.2,9.5c2.2,2,5.2,3.1,9.3,3.1c3.1,0,5.4-0.4,7.1-1.1c1.7-0.7,3.4-1.8,5.1-3l-3.4-5.8c-1,0.8-2.2,1.5-3.5,2.1
		c-1.3,0.6-2.6,0.9-4,0.9c-1.6,0-2.9-0.4-3.9-1.3c-1-0.9-1.5-2.6-1.5-5.2V344.1z M690.3,337.1h-8.6v33.8c0,7,1.6,12.2,4.8,15.7
		c3.2,3.4,8.3,5.1,15.3,5.1c3.8,0,7-0.5,9.5-1.5c2.5-1,4.9-2.3,7-3.9l0.6,4.1h7.9v-53.3H718v41.7c-1.7,1.6-3.9,3-6.7,4.2
		c-2.7,1.2-5.5,1.7-8.2,1.7c-4.3,0-7.5-1.1-9.6-3.2c-2.2-2.1-3.2-5.5-3.2-10.2V337.1z M657,344.1h14.1v-7.1h-14v-14.5h-8.6v14.5
		h-9.2v7.1h9.2v35c0,4.3,1.1,7.4,3.2,9.5c2.2,2,5.3,3.1,9.3,3.1c3.1,0,5.4-0.4,7.1-1.1c1.7-0.7,3.4-1.8,5.1-3l-3.4-5.8
		c-1.1,0.8-2.2,1.5-3.5,2.1c-1.3,0.6-2.6,0.9-4,0.9c-1.6,0-2.9-0.4-3.9-1.3c-1-0.9-1.5-2.6-1.5-5.2V344.1z M628.9,337.1h-8.7v53.3
		h8.7V337.1z M628.6,326.7c1.1-1.2,1.7-2.7,1.7-4.5c0-1.7-0.6-3.2-1.7-4.5c-1.1-1.3-2.5-1.9-4-1.9c-1.6,0-2.9,0.6-4,1.9
		c-1.1,1.3-1.7,2.8-1.7,4.5c0,1.8,0.6,3.3,1.7,4.5c1.1,1.2,2.5,1.8,4,1.8C626.1,328.6,627.5,328,628.6,326.7 M594.5,344.1h14.1v-7.1
		h-14v-14.5H586v14.5h-9.2v7.1h9.2v35c0,4.3,1.1,7.4,3.2,9.5c2.2,2,5.3,3.1,9.3,3.1c3.1,0,5.4-0.4,7.1-1.1c1.7-0.7,3.4-1.8,5.1-3
		l-3.4-5.8c-1,0.8-2.2,1.5-3.5,2.1c-1.3,0.6-2.6,0.9-4,0.9c-1.6,0-2.9-0.4-3.9-1.3c-1-0.9-1.5-2.6-1.5-5.2V344.1z M530.3,381.4
		c1.8,3,4.2,5.4,7.2,7.4c3,1.9,7.1,2.9,12.4,2.9c2.8,0,5.3-0.3,7.6-1.1c2.3-0.7,4.3-1.7,6-3.1c1.7-1.3,3-3,4-5c1-2,1.4-4.2,1.4-6.8
		c0-4.3-1.3-7.8-3.8-10.4c-2.5-2.6-6.3-4.8-11.2-6.5c-2.6-0.9-4.8-1.7-6.4-2.4c-1.7-0.7-3-1.4-4.1-2.1c-1-0.7-1.8-1.5-2.2-2.3
		c-0.4-0.9-0.6-1.8-0.6-3c0-1.8,0.8-3.3,2.3-4.5c1.5-1.2,3.9-1.8,7-1.8c2.5,0,4.8,0.6,6.8,1.8c2,1.2,3.8,2.7,5.2,4.5l6-4.8
		c-2-2.7-4.5-4.8-7.4-6.2c-2.9-1.5-6.5-2.2-10.8-2.2c-5.2,0-9.4,1.2-12.6,3.7c-3.2,2.5-4.8,5.9-4.8,10.2c0,2,0.3,3.8,0.8,5.3
		c0.6,1.5,1.4,2.8,2.6,4c1.2,1.2,2.7,2.3,4.6,3.3c1.9,1,4.1,2,6.8,2.9c2.5,0.9,4.6,1.7,6.3,2.5c1.7,0.8,3.1,1.6,4.2,2.5
		c1.1,0.9,1.9,1.8,2.3,2.9c0.5,1.1,0.7,2.4,0.7,4c0,5.2-3.6,7.8-11,7.8c-3.4,0-6-0.7-8-2c-2-1.3-3.6-3.1-4.9-5.5L530.3,381.4z
		 M483.3,390.4v-41.8c1.9-1.5,4.3-2.9,7-4.1c2.7-1.2,5.5-1.8,8.3-1.8c4.5,0,7.8,1.3,9.8,3.8c2,2.5,3,6,3,10.5v33.4h8.6v-33.2
		c0-7.1-1.5-12.4-4.5-16c-3-3.6-8.2-5.4-15.5-5.4c-3.2,0-6.3,0.5-9.2,1.6c-2.9,1-5.5,2.4-7.7,4l-0.6-4.3h-7.9v53.3H483.3z
		 M457.9,315.8H449v74.6h8.9V315.8z"/>
	<path class="st0" d="M945,253.8c1-5,2.7-8.6,5.3-10.7c2.6-2.1,5.6-3.2,9.2-3.2c1.6,0,3.3,0.3,4.9,0.8c1.6,0.6,3.1,1.4,4.4,2.6
		c1.3,1.2,2.3,2.6,3.1,4.4c0.8,1.8,1.3,3.8,1.3,6.1H945z M983,260.6c0-4-0.5-7.7-1.5-11.1c-1-3.4-2.4-6.3-4.4-8.7
		c-1.9-2.4-4.4-4.3-7.3-5.6c-2.9-1.3-6.4-2-10.3-2c-3.6,0-6.8,0.7-9.8,2c-2.9,1.3-5.4,3.2-7.5,5.6c-2,2.4-3.7,5.3-4.8,8.7
		c-1.2,3.4-1.7,7.2-1.7,11.5c0,4.6,0.6,8.7,1.9,12.2c1.2,3.5,3,6.4,5.2,8.8c2.3,2.3,5,4.1,8.2,5.4c3.2,1.2,6.8,1.8,10.9,1.8
		c5.2,0,9.4-1.1,12.5-3.3c3.1-2.2,5.6-5,7.6-8.3l-5.7-3.8c-1.4,2.4-3.3,4.4-5.6,6c-2.3,1.6-5.1,2.5-8.5,2.5
		c-5.8,0-10.3-1.9-13.3-5.7c-3-3.8-4.6-9.1-4.6-15.8H983z M921.3,272.6c-1.6,3.4-3.6,5.8-6,7.3c-2.4,1.5-4.9,2.2-7.5,2.2
		c-2.3,0-4.5-0.5-6.5-1.4c-2.1-0.9-3.8-2.3-5.4-4.1c-1.5-1.8-2.7-4-3.6-6.6c-0.9-2.6-1.3-5.6-1.3-8.9c0-3.4,0.5-6.3,1.3-8.9
		c0.9-2.6,2.1-4.8,3.6-6.6c1.5-1.8,3.2-3.1,5-4.1c1.9-0.9,3.8-1.4,5.8-1.4c2.6,0,5.1,0.8,7.5,2.3c2.4,1.6,4.4,4.1,5.9,7.7l6.4-4
		c-0.5-1.2-1.2-2.5-2.2-4c-1-1.5-2.3-2.9-3.9-4.3c-1.6-1.3-3.5-2.5-5.8-3.4c-2.3-0.9-4.9-1.3-7.9-1.3c-2.9,0-5.8,0.5-8.7,1.6
		c-2.9,1.1-5.5,2.7-7.8,5c-2.3,2.3-4.2,5.2-5.6,8.8c-1.4,3.6-2.1,7.9-2.1,12.9c0,4.7,0.7,8.8,2.1,12.2c1.4,3.5,3.3,6.4,5.6,8.7
		c2.3,2.3,5,4,8,5.1c3,1.1,6.1,1.7,9.2,1.7c4,0,7.8-1,11.5-3.1c3.6-2,6.5-5.2,8.6-9.6L921.3,272.6z M834.8,287.8V246
		c1.9-1.5,4.3-2.8,7-4.1c2.7-1.2,5.5-1.8,8.3-1.8c4.5,0,7.8,1.3,9.8,3.8c2,2.5,3,6,3,10.5v33.4h8.6v-33.2c0-7.1-1.5-12.4-4.5-16
		c-3-3.6-8.2-5.4-15.5-5.4c-3.2,0-6.3,0.5-9.2,1.6c-2.9,1.1-5.5,2.4-7.7,4l-0.6-4.2h-7.9v53.3H834.8z M801.9,276.5
		c-1.7,1.5-3.7,2.8-5.9,3.9c-2.2,1.1-4.6,1.6-7.2,1.6c-1.2,0-2.4-0.2-3.6-0.5c-1.2-0.3-2.3-0.9-3.4-1.7c-1-0.8-1.8-1.8-2.5-3
		c-0.7-1.2-1-2.7-1-4.4c0-2.7,0.8-4.8,2.3-6.5c1.5-1.6,3.5-2.9,5.8-3.8c2.3-0.9,4.9-1.4,7.7-1.7c2.8-0.3,5.4-0.5,7.8-0.6V276.5z
		 M810.5,287.8V253c0-7.2-1.7-12.3-5-15.3c-3.3-3.1-8-4.6-13.9-4.6c-4.5,0-8.2,0.7-11.1,2.1c-2.9,1.4-5.5,3.5-7.7,6.4l6,4.3
		c1.4-1.8,3.1-3.2,5.2-4.3c2-1.1,4.3-1.6,6.8-1.6c3.6,0,6.3,1,8.2,2.9c1.9,1.9,2.8,5.1,2.8,9.6v0.7c-3.6,0-7.3,0.3-11.1,0.9
		c-3.8,0.6-7.3,1.6-10.4,3.1c-3.1,1.5-5.7,3.4-7.8,5.9c-2,2.5-3.1,5.6-3.1,9.4c0,2.8,0.5,5.2,1.6,7.3c1,2.1,2.4,3.8,4.1,5.2
		c1.7,1.4,3.6,2.4,5.8,3.1c2.2,0.7,4.5,1.1,6.8,1.1c2.9,0,5.6-0.5,8-1.5c2.4-1,4.6-2.4,6.4-4.3l0.4,4.6H810.5z M721.1,287.8V246
		c1.9-1.5,4.3-2.8,7-4.1c2.7-1.2,5.5-1.8,8.3-1.8c4.6,0,7.8,1.3,9.8,3.8c2,2.5,3,6,3,10.5v33.4h8.6v-33.2c0-7.1-1.5-12.4-4.5-16
		c-3-3.6-8.2-5.4-15.5-5.4c-3.2,0-6.3,0.5-9.2,1.6c-2.9,1.1-5.5,2.4-7.7,4l-0.6-4.2h-7.9v53.3H721.1z M683.4,287.8v-41.5
		c1.4-1.3,3.1-2.5,5.1-3.7c2-1.2,4-1.8,6.2-1.8c2.8,0,5.2,0.4,7,1.2l1.6-7.9c-0.8-0.2-1.8-0.4-3.2-0.7c-1.4-0.2-2.9-0.3-4.5-0.3
		c-2.3,0-4.6,0.6-6.8,1.9c-2.2,1.3-4.1,2.6-5.5,4.1l-0.7-4.7h-7.8v53.3H683.4z M623.9,253.8c1-5,2.7-8.6,5.3-10.7
		c2.6-2.1,5.6-3.2,9.2-3.2c1.6,0,3.3,0.3,4.9,0.8c1.7,0.6,3.1,1.4,4.4,2.6c1.3,1.2,2.3,2.6,3.1,4.4c0.8,1.8,1.3,3.8,1.3,6.1H623.9z
		 M662,260.6c0-4-0.5-7.7-1.5-11.1c-1-3.4-2.4-6.3-4.4-8.7c-1.9-2.4-4.4-4.3-7.3-5.6c-2.9-1.3-6.4-2-10.3-2c-3.6,0-6.8,0.7-9.8,2
		c-2.9,1.3-5.4,3.2-7.5,5.6c-2,2.4-3.7,5.3-4.8,8.7c-1.2,3.4-1.7,7.2-1.7,11.5c0,4.6,0.6,8.7,1.8,12.2c1.2,3.5,3,6.4,5.3,8.8
		c2.3,2.3,5,4.1,8.2,5.4c3.2,1.2,6.8,1.8,10.8,1.8c5.2,0,9.4-1.1,12.5-3.3c3.1-2.2,5.6-5,7.6-8.3l-5.7-3.8c-1.4,2.4-3.3,4.4-5.6,6
		c-2.3,1.6-5.1,2.5-8.5,2.5c-5.8,0-10.3-1.9-13.3-5.7c-3.1-3.8-4.6-9.1-4.6-15.8H662z M589.8,287.8l20-53.3h-8.7l-16,43.5
		l-15.9-43.5h-9.3l20,53.3H589.8z M516.9,268.7c-0.7-2.5-1-5.1-1-7.8c0-2.6,0.3-5.2,1-7.7c0.7-2.5,1.7-4.7,3-6.7
		c1.3-2,3-3.6,5.1-4.8c2-1.2,4.5-1.8,7.2-1.8c2.8,0,5.2,0.6,7.2,1.8c2,1.2,3.8,2.8,5.1,4.8c1.4,2,2.4,4.2,3.1,6.8
		c0.7,2.5,1,5.1,1,7.7c0,2.6-0.3,5.2-1,7.7c-0.7,2.5-1.7,4.8-3.1,6.8c-1.4,2-3.1,3.6-5.1,4.8c-2.1,1.2-4.5,1.8-7.2,1.8
		c-2.7,0-5.1-0.6-7.1-1.8c-2-1.2-3.8-2.8-5.2-4.8C518.6,273.5,517.6,271.2,516.9,268.7 M532.2,289c4.1,0,7.7-0.8,10.9-2.4
		c3.1-1.6,5.7-3.7,7.8-6.3c2-2.6,3.6-5.6,4.6-8.9c1-3.4,1.6-6.8,1.6-10.3c0-3.5-0.5-6.9-1.6-10.3c-1.1-3.4-2.6-6.3-4.6-8.9
		c-2-2.6-4.6-4.7-7.8-6.3c-3.1-1.6-6.7-2.4-10.9-2.4c-4.2,0-7.8,0.8-10.9,2.3c-3.1,1.6-5.7,3.7-7.8,6.3c-2.1,2.6-3.6,5.6-4.6,8.9
		c-1,3.3-1.5,6.7-1.5,10.2c0,3.5,0.5,7,1.6,10.3c1,3.4,2.6,6.4,4.7,9.1c2.1,2.7,4.7,4.8,7.7,6.4C524.5,288.3,528.1,289,532.2,289
		 M497.8,252.1h-21.2v7.8h12.3v19.5c-1.6,0.5-3.6,1-6,1.4c-2.5,0.4-5.4,0.6-8.7,0.6c-3.1,0-5.9-0.7-8.7-2c-2.7-1.3-5.1-3.3-7.2-5.9
		c-2-2.6-3.7-5.8-4.9-9.6c-1.2-3.8-1.8-8.1-1.8-13c0-5.4,0.6-10.1,1.7-14.1c1.2-4,2.7-7.2,4.6-9.7c1.9-2.5,4.1-4.4,6.6-5.6
		c2.5-1.2,5.1-1.8,7.7-1.8c4.5,0,8,1,10.7,3c2.6,2,4.8,4.6,6.5,8l7.2-4.4c-1.1-2.2-2.4-4.3-3.8-6c-1.4-1.8-3.1-3.3-5-4.6
		c-1.9-1.3-4.2-2.2-6.7-2.9c-2.5-0.7-5.5-1-8.8-1c-3.9,0-7.6,0.7-11.2,2.2c-3.6,1.5-6.8,3.7-9.6,6.9c-2.8,3.1-5,7.2-6.7,12.1
		c-1.7,4.9-2.5,10.9-2.5,17.9c0,6.9,0.8,12.7,2.5,17.6c1.7,4.9,4,8.8,6.9,11.9c2.9,3.1,6.3,5.4,10.1,6.8c3.8,1.5,8,2.2,12.4,2.2
		c2.5,0,5-0.1,7.4-0.4c2.4-0.3,4.6-0.6,6.7-1c2.1-0.4,3.9-0.9,5.6-1.4c1.6-0.5,3-1,4.1-1.5V252.1z"/>
	<path class="st0" d="M824.9,151.2c1-5,2.7-8.6,5.3-10.7c2.6-2.1,5.6-3.2,9.2-3.2c1.6,0,3.3,0.3,4.9,0.8c1.6,0.6,3.1,1.4,4.4,2.6
		c1.3,1.2,2.3,2.6,3.1,4.4c0.8,1.8,1.3,3.8,1.3,6.1H824.9z M863,158c0-4-0.5-7.7-1.5-11.1c-1-3.4-2.4-6.3-4.4-8.7
		c-1.9-2.4-4.4-4.3-7.3-5.6c-3-1.3-6.4-2-10.3-2c-3.6,0-6.8,0.7-9.8,2c-2.9,1.3-5.4,3.2-7.5,5.6c-2,2.4-3.7,5.3-4.8,8.7
		c-1.2,3.4-1.7,7.2-1.7,11.5c0,4.6,0.6,8.7,1.9,12.2c1.2,3.5,3,6.4,5.3,8.8c2.3,2.3,5,4.1,8.2,5.4c3.2,1.2,6.8,1.8,10.8,1.8
		c5.2,0,9.4-1.1,12.5-3.3c3.1-2.2,5.6-5,7.5-8.3l-5.7-3.8c-1.4,2.4-3.3,4.4-5.6,6c-2.3,1.6-5.2,2.5-8.5,2.5
		c-5.8,0-10.2-1.9-13.3-5.7c-3.1-3.8-4.6-9.1-4.6-15.8H863z M801.3,170c-1.6,3.4-3.6,5.8-6,7.3c-2.4,1.5-4.9,2.2-7.6,2.2
		c-2.3,0-4.5-0.5-6.5-1.4c-2.1-0.9-3.8-2.3-5.4-4.1c-1.5-1.8-2.7-4-3.6-6.6c-0.9-2.6-1.3-5.6-1.3-8.9c0-3.4,0.4-6.3,1.3-8.9
		c0.9-2.6,2.1-4.8,3.6-6.6c1.5-1.8,3.2-3.1,5-4.1c1.9-0.9,3.8-1.4,5.8-1.4c2.6,0,5.1,0.8,7.5,2.3c2.4,1.6,4.4,4.1,5.9,7.7l6.4-4
		c-0.4-1.2-1.2-2.5-2.2-4c-1-1.5-2.3-2.9-3.9-4.2c-1.6-1.3-3.5-2.5-5.8-3.4c-2.3-0.9-4.9-1.3-7.9-1.3c-2.9,0-5.8,0.5-8.7,1.6
		c-2.9,1-5.5,2.7-7.8,5c-2.3,2.3-4.2,5.2-5.6,8.8c-1.4,3.6-2.1,7.9-2.1,12.9c0,4.7,0.7,8.8,2.1,12.2c1.4,3.5,3.3,6.4,5.6,8.7
		c2.3,2.3,5,4,8,5.1c3,1.1,6.1,1.7,9.2,1.7c4,0,7.9-1,11.5-3.1c3.6-2.1,6.5-5.2,8.6-9.6L801.3,170z M737.3,185.2v-41.5
		c1.4-1.3,3.1-2.5,5.1-3.7c2-1.2,4-1.8,6.2-1.8c2.8,0,5.2,0.4,7,1.2l1.6-7.9c-0.7-0.2-1.8-0.5-3.2-0.7c-1.4-0.2-2.9-0.3-4.5-0.3
		c-2.3,0-4.6,0.6-6.8,1.9c-2.2,1.3-4.1,2.6-5.5,4.1l-0.7-4.7h-7.8v53.3H737.3z M676.4,131.8h-8.6v33.8c0,7,1.6,12.2,4.8,15.7
		c3.2,3.4,8.3,5.1,15.3,5.1c3.8,0,7-0.5,9.5-1.5c2.5-1,4.9-2.3,7-3.9l0.6,4.1h7.9v-53.3h-8.7v41.7c-1.7,1.6-3.9,3-6.7,4.2
		c-2.7,1.2-5.5,1.7-8.2,1.7c-4.2,0-7.5-1.1-9.6-3.2c-2.2-2.1-3.2-5.5-3.2-10.2V131.8z M614.6,166c-0.7-2.5-1-5.1-1-7.8
		c0-2.6,0.3-5.2,1-7.7c0.7-2.5,1.7-4.7,3-6.7c1.3-2,3-3.6,5.1-4.8c2-1.2,4.5-1.8,7.2-1.8c2.8,0,5.2,0.6,7.2,1.8
		c2,1.2,3.8,2.8,5.2,4.8c1.4,2,2.4,4.2,3.1,6.8c0.7,2.5,1,5.1,1,7.7c0,2.6-0.3,5.2-1,7.7c-0.7,2.5-1.7,4.8-3.1,6.8
		c-1.4,2-3.1,3.6-5.2,4.8c-2,1.2-4.5,1.8-7.2,1.8c-2.7,0-5.1-0.6-7.1-1.8c-2-1.2-3.8-2.8-5.2-4.8C616.3,170.9,615.3,168.6,614.6,166
		 M629.9,186.4c4.1,0,7.7-0.8,10.8-2.4c3.1-1.6,5.7-3.7,7.8-6.3c2-2.6,3.6-5.6,4.6-8.9c1-3.4,1.6-6.8,1.6-10.3s-0.5-6.9-1.6-10.3
		c-1-3.4-2.6-6.3-4.6-8.9c-2.1-2.6-4.6-4.7-7.8-6.3c-3.1-1.6-6.7-2.4-10.8-2.4c-4.2,0-7.8,0.8-10.9,2.3c-3.1,1.6-5.7,3.7-7.8,6.3
		c-2.1,2.6-3.6,5.6-4.6,8.9c-1,3.3-1.5,6.7-1.5,10.2c0,3.5,0.5,7,1.6,10.3c1,3.4,2.6,6.4,4.7,9.1c2.1,2.7,4.7,4.8,7.7,6.4
		C622.2,185.6,625.8,186.4,629.9,186.4 M557.1,176.1c1.8,3,4.2,5.4,7.2,7.4c3,1.9,7.1,2.9,12.4,2.9c2.8,0,5.3-0.4,7.6-1.1
		c2.3-0.7,4.3-1.7,6-3.1c1.7-1.3,3-3,4-5c1-2,1.5-4.2,1.5-6.8c0-4.3-1.3-7.8-3.8-10.4c-2.5-2.6-6.3-4.8-11.2-6.5
		c-2.6-0.9-4.8-1.7-6.4-2.4c-1.7-0.7-3-1.4-4.1-2.1c-1-0.7-1.8-1.5-2.2-2.3c-0.4-0.9-0.6-1.8-0.6-3c0-1.8,0.8-3.3,2.3-4.5
		c1.5-1.2,3.9-1.8,7-1.8c2.5,0,4.8,0.6,6.8,1.8c2,1.2,3.8,2.7,5.3,4.5l6-4.8c-2-2.7-4.5-4.8-7.4-6.2c-2.9-1.5-6.5-2.2-10.9-2.2
		c-5.2,0-9.4,1.2-12.6,3.7c-3.2,2.5-4.8,5.9-4.8,10.2c0,2,0.3,3.8,0.8,5.3c0.6,1.5,1.4,2.8,2.6,4c1.2,1.2,2.7,2.3,4.6,3.3
		c1.9,1,4.1,2,6.8,2.8c2.5,0.9,4.5,1.7,6.3,2.5c1.7,0.8,3.1,1.6,4.2,2.5c1.1,0.9,1.9,1.8,2.3,2.9c0.5,1.1,0.7,2.4,0.7,4
		c0,5.2-3.7,7.8-11,7.8c-3.4,0-6-0.7-8-2c-2-1.3-3.6-3.2-4.9-5.5L557.1,176.1z M512.2,151.2c1-5,2.7-8.6,5.3-10.7
		c2.6-2.1,5.6-3.2,9.2-3.2c1.6,0,3.3,0.3,4.9,0.8c1.6,0.6,3.1,1.4,4.4,2.6c1.3,1.2,2.3,2.6,3.1,4.4c0.8,1.8,1.3,3.8,1.3,6.1H512.2z
		 M550.2,158c0-4-0.5-7.7-1.5-11.1c-1-3.4-2.4-6.3-4.4-8.7c-1.9-2.4-4.4-4.3-7.3-5.6c-3-1.3-6.4-2-10.3-2c-3.6,0-6.8,0.7-9.8,2
		c-2.9,1.3-5.4,3.2-7.5,5.6c-2,2.4-3.7,5.3-4.8,8.7c-1.2,3.4-1.7,7.2-1.7,11.5c0,4.6,0.6,8.7,1.8,12.2c1.2,3.5,3,6.4,5.2,8.8
		c2.3,2.3,5,4.1,8.2,5.4c3.2,1.2,6.8,1.8,10.8,1.8c5.2,0,9.4-1.1,12.5-3.3c3.1-2.2,5.6-5,7.6-8.3l-5.7-3.8c-1.4,2.4-3.3,4.4-5.6,6
		c-2.3,1.6-5.1,2.5-8.5,2.5c-5.8,0-10.3-1.9-13.3-5.7c-3.1-3.8-4.6-9.1-4.6-15.8H550.2z M454.6,118.3h15.2c4.8,0,8.4,1,11,3.1
		c2.5,2.1,3.8,5.3,3.8,9.5c0,9.2-5.2,13.9-15.6,13.9h-14.4V118.3z M454.6,185.2v-32.7h10.8l20.1,32.7h10.2L475.4,152
		c2.6-0.4,5.1-1.2,7.3-2.2c2.3-1,4.3-2.4,5.9-4.1c1.7-1.7,3-3.7,3.9-6.1c0.9-2.4,1.4-5.3,1.4-8.6c0-6.1-2-11-5.9-14.8
		c-4-3.7-10.1-5.6-18.5-5.6h-23.9v74.6H454.6z"/>
	<path class="st0" d="M763.8,6.3h-8.6v74.6h8.6V6.3z M730.9,69.6c-1.7,1.5-3.7,2.8-5.9,3.9c-2.2,1.1-4.6,1.6-7.2,1.6
		c-1.2,0-2.4-0.2-3.6-0.5c-1.2-0.3-2.3-0.9-3.3-1.7c-1-0.8-1.9-1.8-2.5-3c-0.7-1.2-1-2.6-1-4.4c0-2.7,0.8-4.9,2.3-6.5
		c1.5-1.6,3.5-2.9,5.8-3.8c2.3-0.9,4.9-1.4,7.7-1.7c2.8-0.3,5.4-0.5,7.8-0.6V69.6z M739.5,80.9V46.1c0-7.2-1.7-12.3-5-15.3
		c-3.3-3.1-8-4.6-13.9-4.6c-4.5,0-8.2,0.7-11.1,2.1c-2.9,1.4-5.5,3.5-7.7,6.4l6,4.2c1.4-1.8,3.1-3.2,5.2-4.3c2-1.1,4.3-1.6,6.8-1.6
		c3.6,0,6.3,1,8.2,2.9c1.9,1.9,2.9,5.1,2.9,9.6v0.7c-3.6,0-7.3,0.3-11.1,0.9c-3.8,0.6-7.3,1.6-10.4,3.1c-3.1,1.5-5.7,3.4-7.8,5.9
		c-2,2.5-3.1,5.6-3.1,9.4c0,2.8,0.5,5.2,1.6,7.3c1,2.1,2.4,3.8,4.1,5.2c1.7,1.4,3.6,2.4,5.8,3.1c2.2,0.7,4.5,1.1,6.8,1.1
		c2.9,0,5.6-0.5,8-1.5c2.4-1,4.6-2.4,6.4-4.3l0.4,4.6H739.5z M673.3,80.9V39.4c1.4-1.3,3.1-2.5,5.1-3.7c2-1.2,4-1.8,6.2-1.8
		c2.8,0,5.2,0.4,7,1.2l1.6-7.9c-0.8-0.2-1.8-0.5-3.2-0.7c-1.4-0.2-2.9-0.3-4.5-0.3c-2.3,0-4.6,0.6-6.8,1.9c-2.2,1.3-4.1,2.6-5.5,4.1
		l-0.7-4.7h-7.8v53.3H673.3z M612.3,27.6h-8.6v33.8c0,7,1.6,12.2,4.8,15.7c3.2,3.4,8.3,5.1,15.3,5.1c3.8,0,7-0.5,9.5-1.5
		c2.5-1,4.9-2.3,7-3.9l0.6,4.1h7.9V27.6H640v41.7c-1.7,1.6-3.9,3-6.6,4.2c-2.7,1.2-5.5,1.7-8.2,1.7c-4.3,0-7.5-1.1-9.6-3.2
		c-2.2-2.1-3.2-5.5-3.2-10.2V27.6z M579.1,34.6h14.1v-7h-14V13h-8.6v14.5h-9.2v7h9.2v35c0,4.3,1.1,7.4,3.2,9.4
		c2.2,2.1,5.3,3.1,9.3,3.1c3.1,0,5.4-0.4,7.1-1.1c1.7-0.7,3.4-1.7,5.1-3l-3.4-5.8c-1,0.8-2.2,1.5-3.5,2.1c-1.3,0.6-2.6,0.9-4,0.9
		c-1.6,0-2.8-0.4-3.9-1.3c-1-0.9-1.5-2.6-1.5-5.2V34.6z M544.1,69.6c-1.7,1.5-3.7,2.8-5.9,3.9c-2.2,1.1-4.6,1.6-7.2,1.6
		c-1.2,0-2.4-0.2-3.6-0.5c-1.2-0.3-2.3-0.9-3.4-1.7c-1-0.8-1.8-1.8-2.5-3c-0.7-1.2-1-2.6-1-4.4c0-2.7,0.8-4.9,2.3-6.5
		c1.5-1.6,3.5-2.9,5.8-3.8c2.3-0.9,4.9-1.4,7.7-1.7c2.8-0.3,5.4-0.5,7.8-0.6V69.6z M552.7,80.9V46.1c0-7.2-1.7-12.3-5-15.3
		c-3.3-3.1-8-4.6-13.9-4.6c-4.5,0-8.2,0.7-11.1,2.1c-2.9,1.4-5.5,3.5-7.7,6.4l6,4.2c1.4-1.8,3.2-3.2,5.2-4.3c2-1.1,4.3-1.6,6.8-1.6
		c3.6,0,6.3,1,8.2,2.9c1.9,1.9,2.9,5.1,2.9,9.6v0.7c-3.6,0-7.3,0.3-11.1,0.9c-3.8,0.6-7.3,1.6-10.4,3.1c-3.1,1.5-5.7,3.4-7.8,5.9
		c-2,2.5-3.1,5.6-3.1,9.4c0,2.8,0.5,5.2,1.6,7.3c1,2.1,2.4,3.8,4.1,5.2c1.7,1.4,3.6,2.4,5.8,3.1c2.2,0.7,4.5,1.1,6.8,1.1
		c2.9,0,5.6-0.5,8-1.5c2.4-1,4.6-2.4,6.4-4.3l0.5,4.6H552.7z M454.5,80.9V21.7l40,59.2h6.6V6.3h-8.8v55.6L454.7,6.3h-9.1v74.6H454.5
		z"/>
	<polygon class="st1" points="188.9,391.5 189,391.5 189,273.4 6.2,273.4 6.2,391.5 	"/>
	<path class="st0" d="M6.2,6.4v255l162.7-118.8c12.6-9.2,20.1-24.1,20.1-39.9V6.4c0,0,0,0,0,0H6.2z"/>
	<path class="st0" d="M204.8,6.4C204.8,6.4,204.8,6.4,204.8,6.4l0,118.1h182.7V6.4H204.8z"/>
	<path class="st1" d="M224.9,255.5c-12.6,9.2-20.1,24.1-20.1,39.9v96.3h0h182.7v-255L224.9,255.5z"/>
</g>
</svg>
