<svg xmlns="http://www.w3.org/2000/svg" width="209.124" height="82.502" viewBox="0 0 209.124 82.502"><g transform="translate(-6.206 -6.3)"><path d="M520.99,324.532a3.8,3.8,0,0,1,1.137-2.287,3,3,0,0,1,1.975-.682,3.232,3.232,0,0,1,1.054.181,2.609,2.609,0,0,1,.933.549,2.907,2.907,0,0,1,.672.935,3.337,3.337,0,0,1,.286,1.3Zm8.141,1.459a8.662,8.662,0,0,0-.31-2.381,5.284,5.284,0,0,0-.935-1.867,4.208,4.208,0,0,0-1.569-1.211,5.308,5.308,0,0,0-2.214-.431,5.113,5.113,0,0,0-2.1.419,4.4,4.4,0,0,0-1.6,1.2,5.711,5.711,0,0,0-1.03,1.867,7.617,7.617,0,0,0-.37,2.455,7.835,7.835,0,0,0,.394,2.61,5.045,5.045,0,0,0,1.126,1.88,4.825,4.825,0,0,0,1.76,1.15,6.451,6.451,0,0,0,2.322.393,4.537,4.537,0,0,0,2.67-.705,5.6,5.6,0,0,0,1.615-1.784l-1.221-.814a4.181,4.181,0,0,1-1.2,1.293,3.058,3.058,0,0,1-1.819.526,3.44,3.44,0,0,1-2.85-1.221,5.253,5.253,0,0,1-.981-3.377ZM514.465,321.9h3.017v-1.51h-2.992v-3.112h-1.844v3.112h-1.964v1.51h1.964v7.492a2.665,2.665,0,0,0,.7,2.024,2.777,2.777,0,0,0,1.987.657,3.854,3.854,0,0,0,1.52-.238,5.7,5.7,0,0,0,1.09-.647l-.718-1.244a3.868,3.868,0,0,1-.741.455,2.026,2.026,0,0,1-.863.191,1.22,1.22,0,0,1-.827-.276,1.444,1.444,0,0,1-.324-1.113Zm-13.815-1.51h-1.844v7.232a4.793,4.793,0,0,0,1.019,3.351,4.258,4.258,0,0,0,3.267,1.1,5.754,5.754,0,0,0,2.036-.31,6.06,6.06,0,0,0,1.509-.838l.12.886h1.7V320.39h-1.868v8.931a4.717,4.717,0,0,1-1.425.9,4.488,4.488,0,0,1-1.76.37,2.82,2.82,0,0,1-2.059-.682,2.967,2.967,0,0,1-.695-2.191Zm-7.12,1.51h3.017v-1.51h-2.994v-3.112H491.71v3.112h-1.964v1.51h1.964v7.492a2.671,2.671,0,0,0,.693,2.024,2.779,2.779,0,0,0,1.987.657,3.863,3.863,0,0,0,1.522-.238,5.8,5.8,0,0,0,1.089-.647l-.718-1.244a3.93,3.93,0,0,1-.743.455,2.014,2.014,0,0,1-.861.191,1.221,1.221,0,0,1-.827-.276,1.444,1.444,0,0,1-.324-1.113Zm-6.009-1.51h-1.867V331.81h1.867Zm-.072-2.215a1.386,1.386,0,0,0,.36-.969,1.4,1.4,0,0,0-.36-.958,1.118,1.118,0,0,0-1.724,0,1.4,1.4,0,0,0-.358.958,1.385,1.385,0,0,0,.358.969,1.136,1.136,0,0,0,1.724,0m-7.3,3.725h3.017v-1.51H480.17v-3.112h-1.844v3.112h-1.964v1.51h1.964v7.492a2.665,2.665,0,0,0,.7,2.024,2.772,2.772,0,0,0,1.985.657,3.861,3.861,0,0,0,1.522-.238,5.8,5.8,0,0,0,1.09-.647l-.718-1.244a3.88,3.88,0,0,1-.743.455,2.015,2.015,0,0,1-.861.191,1.22,1.22,0,0,1-.827-.276,1.443,1.443,0,0,1-.324-1.113ZM466.4,329.871a4.374,4.374,0,0,0,4.19,2.2,5.492,5.492,0,0,0,1.627-.227,3.77,3.77,0,0,0,1.282-.659,3.085,3.085,0,0,0,.851-1.065,3.274,3.274,0,0,0,.309-1.449,3.054,3.054,0,0,0-.812-2.225,6.056,6.056,0,0,0-2.4-1.389c-.559-.192-1.017-.363-1.377-.516a5.068,5.068,0,0,1-.874-.455,1.293,1.293,0,0,1-.465-.5,1.437,1.437,0,0,1-.133-.634,1.2,1.2,0,0,1,.491-.969,2.364,2.364,0,0,1,1.5-.395,2.821,2.821,0,0,1,1.461.383,4.306,4.306,0,0,1,1.124.958l1.293-1.029a4.448,4.448,0,0,0-1.579-1.331,5.175,5.175,0,0,0-2.322-.467,4.269,4.269,0,0,0-2.695.79,2.607,2.607,0,0,0-1.017,2.179,3.193,3.193,0,0,0,.179,1.126,2.414,2.414,0,0,0,.562.863,4.284,4.284,0,0,0,.983.7,9.168,9.168,0,0,0,1.459.611c.529.191.975.371,1.341.537a4.5,4.5,0,0,1,.9.528,1.679,1.679,0,0,1,.5.623,2.08,2.08,0,0,1,.155.85q0,1.676-2.345,1.676a3.07,3.07,0,0,1-1.712-.419,3.158,3.158,0,0,1-1.042-1.185Zm-10.055,1.939v-8.954a7.491,7.491,0,0,1,1.5-.874,4.3,4.3,0,0,1,1.785-.395,2.533,2.533,0,0,1,2.107.814,3.532,3.532,0,0,1,.646,2.251v7.158h1.845V324.7a5.254,5.254,0,0,0-.971-3.436,4.112,4.112,0,0,0-3.316-1.162,5.831,5.831,0,0,0-1.975.337,6,6,0,0,0-1.642.861l-.118-.91h-1.7V331.81Zm-5.436-15.969h-1.916v15.971h1.916Z" transform="translate(-347.992 -243.271)" fill="#fff"/><path d="M549.734,220.759a3.8,3.8,0,0,1,1.137-2.287,3,3,0,0,1,1.974-.684,3.253,3.253,0,0,1,1.055.181,2.651,2.651,0,0,1,.933.55,2.922,2.922,0,0,1,.671.935,3.3,3.3,0,0,1,.288,1.3Zm8.141,1.459a8.655,8.655,0,0,0-.312-2.381,5.284,5.284,0,0,0-.933-1.868,4.216,4.216,0,0,0-1.569-1.209,5.315,5.315,0,0,0-2.215-.431,5.112,5.112,0,0,0-2.094.419,4.427,4.427,0,0,0-1.605,1.2,5.7,5.7,0,0,0-1.029,1.868,7.566,7.566,0,0,0-.371,2.453,7.843,7.843,0,0,0,.4,2.611,5.064,5.064,0,0,0,1.124,1.88,4.867,4.867,0,0,0,1.76,1.149,6.423,6.423,0,0,0,2.324.394,4.53,4.53,0,0,0,2.669-.7,5.617,5.617,0,0,0,1.617-1.785L556.414,225a4.2,4.2,0,0,1-1.2,1.293,3.069,3.069,0,0,1-1.819.526,3.445,3.445,0,0,1-2.851-1.221,5.263,5.263,0,0,1-.981-3.377Zm-13.2,2.562a3.473,3.473,0,0,1-1.282,1.558,3.039,3.039,0,0,1-1.615.478,3.353,3.353,0,0,1-1.4-.3,3.3,3.3,0,0,1-1.15-.874,4.332,4.332,0,0,1-.777-1.412,6.528,6.528,0,0,1,0-3.832,4.437,4.437,0,0,1,.767-1.413,3.325,3.325,0,0,1,1.076-.873,2.738,2.738,0,0,1,1.246-.3,2.871,2.871,0,0,1,1.6.5,3.652,3.652,0,0,1,1.269,1.652l1.365-.863a4.267,4.267,0,0,0-.468-.861,4.427,4.427,0,0,0-2.082-1.629,4.575,4.575,0,0,0-1.688-.288,5.5,5.5,0,0,0-1.868.335,4.6,4.6,0,0,0-1.676,1.065,5.363,5.363,0,0,0-1.2,1.88,7.473,7.473,0,0,0-.455,2.754,6.89,6.89,0,0,0,.455,2.621,5.54,5.54,0,0,0,1.2,1.857,4.72,4.72,0,0,0,1.712,1.1,5.667,5.667,0,0,0,1.975.358,4.893,4.893,0,0,0,2.455-.659,4.53,4.53,0,0,0,1.831-2.046Zm-18.526,3.257v-8.956a7.513,7.513,0,0,1,1.5-.872,4.258,4.258,0,0,1,1.783-.394,2.532,2.532,0,0,1,2.107.812,3.539,3.539,0,0,1,.647,2.251v7.16h1.844v-7.112a5.242,5.242,0,0,0-.971-3.434,4.11,4.11,0,0,0-3.316-1.162,5.867,5.867,0,0,0-1.975.335,6.086,6.086,0,0,0-1.64.861l-.118-.909h-1.7v11.421Zm-7.045-2.419a5.74,5.74,0,0,1-1.257.827,3.451,3.451,0,0,1-1.545.348,2.924,2.924,0,0,1-.777-.109,2.043,2.043,0,0,1-.72-.36,2.177,2.177,0,0,1-.539-.633,1.894,1.894,0,0,1-.214-.935,1.956,1.956,0,0,1,.49-1.389,3.159,3.159,0,0,1,1.246-.8,7.018,7.018,0,0,1,1.64-.37q.888-.1,1.676-.12Zm1.844,2.419v-7.446a4.287,4.287,0,0,0-1.066-3.28,4.222,4.222,0,0,0-2.979-.983,5.608,5.608,0,0,0-2.383.444,4.315,4.315,0,0,0-1.64,1.376l1.293.91a3.458,3.458,0,0,1,1.112-.922,3.057,3.057,0,0,1,1.449-.348,2.356,2.356,0,0,1,1.76.624,2.88,2.88,0,0,1,.609,2.059v.143a15.422,15.422,0,0,0-2.37.191,8.443,8.443,0,0,0-2.228.659,4.743,4.743,0,0,0-1.663,1.257,3.042,3.042,0,0,0-.659,2.013,3.44,3.44,0,0,0,.335,1.556,3.359,3.359,0,0,0,.874,1.112,3.731,3.731,0,0,0,1.246.671,4.7,4.7,0,0,0,1.448.227,4.429,4.429,0,0,0,1.712-.322,4.233,4.233,0,0,0,1.377-.922l.1.981Zm-19.131,0v-8.956a7.584,7.584,0,0,1,1.5-.872,4.263,4.263,0,0,1,1.783-.394,2.53,2.53,0,0,1,2.107.812,3.53,3.53,0,0,1,.647,2.251v7.16h1.844v-7.112a5.242,5.242,0,0,0-.969-3.434,4.115,4.115,0,0,0-3.316-1.162,5.861,5.861,0,0,0-1.975.335,6.067,6.067,0,0,0-1.64.861l-.12-.909h-1.7v11.421Zm-8.088,0v-8.884a7.428,7.428,0,0,1,1.09-.79,2.542,2.542,0,0,1,1.329-.383,3.752,3.752,0,0,1,1.508.265l.335-1.7a5.8,5.8,0,0,0-.684-.143,6.064,6.064,0,0,0-.968-.072,2.914,2.914,0,0,0-1.461.407,4.942,4.942,0,0,0-1.173.886l-.145-1.006h-1.676v11.421ZM481,220.759a3.794,3.794,0,0,1,1.137-2.287,3,3,0,0,1,1.975-.684,3.234,3.234,0,0,1,1.052.181,2.631,2.631,0,0,1,.935.55,2.9,2.9,0,0,1,.671.935,3.3,3.3,0,0,1,.288,1.3Zm8.139,1.459a8.646,8.646,0,0,0-.311-2.381,5.255,5.255,0,0,0-.933-1.868,4.23,4.23,0,0,0-1.569-1.209,5.307,5.307,0,0,0-2.214-.431,5.108,5.108,0,0,0-2.1.419,4.419,4.419,0,0,0-1.6,1.2,5.726,5.726,0,0,0-1.03,1.868,7.613,7.613,0,0,0-.371,2.453,7.89,7.89,0,0,0,.394,2.611,5.067,5.067,0,0,0,1.127,1.88,4.828,4.828,0,0,0,1.76,1.149,6.405,6.405,0,0,0,2.322.394,4.526,4.526,0,0,0,2.669-.7,5.619,5.619,0,0,0,1.617-1.785L487.682,225a4.218,4.218,0,0,1-1.2,1.293,3.069,3.069,0,0,1-1.819.526,3.437,3.437,0,0,1-2.849-1.221,5.253,5.253,0,0,1-.981-3.377Zm-15.447,5.819,4.284-11.421h-1.867l-3.423,9.314-3.4-9.314H467.3l4.286,11.421Zm-15.613-4.095a6.556,6.556,0,0,1-.215-1.676,6.346,6.346,0,0,1,.215-1.64,4.747,4.747,0,0,1,.647-1.436,3.325,3.325,0,0,1,1.09-1.017,3.295,3.295,0,0,1,3.089,0,3.457,3.457,0,0,1,1.1,1.017,4.6,4.6,0,0,1,.659,1.449,6.49,6.49,0,0,1,0,3.3,4.57,4.57,0,0,1-.659,1.449,3.553,3.553,0,0,1-1.1,1.028,2.941,2.941,0,0,1-1.546.4,2.887,2.887,0,0,1-1.52-.4,3.737,3.737,0,0,1-1.113-1.017,4.854,4.854,0,0,1-.647-1.461m3.28,4.358a5.027,5.027,0,0,0,2.324-.514,4.95,4.95,0,0,0,1.665-1.352,5.954,5.954,0,0,0,.994-1.916,7.435,7.435,0,0,0,0-4.4,5.936,5.936,0,0,0-.994-1.916,4.975,4.975,0,0,0-1.665-1.354,5.027,5.027,0,0,0-2.324-.514,5.108,5.108,0,0,0-2.334.5,4.96,4.96,0,0,0-1.663,1.341,5.592,5.592,0,0,0-.994,1.9,7.523,7.523,0,0,0,.012,4.4,5.871,5.871,0,0,0,1.006,1.939,5.186,5.186,0,0,0,1.652,1.377,5.106,5.106,0,0,0,2.322.5m-7.373-7.9H449.44v1.676h2.632v4.166a8.67,8.67,0,0,1-1.292.3,11.43,11.43,0,0,1-1.868.133,4.148,4.148,0,0,1-1.857-.432,4.445,4.445,0,0,1-1.531-1.269,6.391,6.391,0,0,1-1.04-2.059,9.243,9.243,0,0,1-.383-2.777,10.8,10.8,0,0,1,.37-3.017,6.485,6.485,0,0,1,.981-2.084,3.858,3.858,0,0,1,1.413-1.2,4.111,4.111,0,0,1,3.928.25,4.854,4.854,0,0,1,1.4,1.712l1.533-.933a7.292,7.292,0,0,0-.815-1.292,4.518,4.518,0,0,0-1.076-.983,4.9,4.9,0,0,0-1.438-.621,7.3,7.3,0,0,0-1.89-.217,6.4,6.4,0,0,0-2.407.467,5.5,5.5,0,0,0-2.059,1.472,7.412,7.412,0,0,0-1.436,2.586,11.928,11.928,0,0,0-.539,3.832,11.529,11.529,0,0,0,.539,3.758,7,7,0,0,0,1.471,2.549,5.705,5.705,0,0,0,2.169,1.461,7.383,7.383,0,0,0,2.646.468,14.51,14.51,0,0,0,1.579-.086c.511-.056.989-.127,1.438-.213a11.219,11.219,0,0,0,1.2-.3c.352-.112.646-.215.886-.311Z" transform="translate(-342.545 -161.47)" fill="#fff"/><path d="M526.841,119.271a3.8,3.8,0,0,1,1.137-2.288,3.005,3.005,0,0,1,1.977-.682,3.289,3.289,0,0,1,1.053.179,2.634,2.634,0,0,1,.932.55,2.906,2.906,0,0,1,.672.935,3.3,3.3,0,0,1,.286,1.3Zm8.141,1.459a8.647,8.647,0,0,0-.311-2.381,5.279,5.279,0,0,0-.935-1.868,4.22,4.22,0,0,0-1.566-1.21,5.334,5.334,0,0,0-2.215-.431,5.122,5.122,0,0,0-2.1.419,4.421,4.421,0,0,0-1.6,1.2,5.733,5.733,0,0,0-1.03,1.869,7.606,7.606,0,0,0-.37,2.453,7.838,7.838,0,0,0,.4,2.611,5.039,5.039,0,0,0,1.124,1.88,4.793,4.793,0,0,0,1.76,1.147,6.412,6.412,0,0,0,2.322.4,4.531,4.531,0,0,0,2.67-.705,5.593,5.593,0,0,0,1.615-1.785l-1.221-.813a4.2,4.2,0,0,1-1.2,1.293,3.076,3.076,0,0,1-1.821.526,3.436,3.436,0,0,1-2.848-1.221,5.245,5.245,0,0,1-.983-3.377Zm-13.2,2.562a3.481,3.481,0,0,1-1.28,1.556,3.038,3.038,0,0,1-1.617.48,3.347,3.347,0,0,1-1.4-.3,3.293,3.293,0,0,1-1.15-.874,4.27,4.27,0,0,1-.777-1.412,6.527,6.527,0,0,1,0-3.832,4.4,4.4,0,0,1,.766-1.413,3.346,3.346,0,0,1,1.078-.873,2.731,2.731,0,0,1,1.244-.3,2.874,2.874,0,0,1,1.6.5,3.657,3.657,0,0,1,1.27,1.653l1.364-.863a4.29,4.29,0,0,0-.467-.863,4.437,4.437,0,0,0-2.082-1.627,4.584,4.584,0,0,0-1.689-.288,5.49,5.49,0,0,0-1.867.335,4.543,4.543,0,0,0-1.676,1.067,5.342,5.342,0,0,0-1.2,1.878,7.5,7.5,0,0,0-.455,2.754,6.923,6.923,0,0,0,.455,2.621,5.518,5.518,0,0,0,1.2,1.855,4.658,4.658,0,0,0,1.711,1.1,5.644,5.644,0,0,0,1.975.36,4.9,4.9,0,0,0,2.455-.657,4.538,4.538,0,0,0,1.832-2.048Zm-13.694,3.257v-8.884a7.239,7.239,0,0,1,1.09-.79,2.542,2.542,0,0,1,1.329-.383,3.794,3.794,0,0,1,1.509.263l.334-1.7a5.344,5.344,0,0,0-.682-.143,6.082,6.082,0,0,0-.969-.072,2.912,2.912,0,0,0-1.459.408,4.931,4.931,0,0,0-1.173.886l-.145-1.006h-1.676v11.421Zm-13.051-11.421h-1.844v7.23a4.792,4.792,0,0,0,1.017,3.352,4.261,4.261,0,0,0,3.268,1.1,5.752,5.752,0,0,0,2.034-.311,6.058,6.058,0,0,0,1.509-.838l.12.886h1.7V115.128h-1.867v8.93a4.7,4.7,0,0,1-1.425.9,4.455,4.455,0,0,1-1.76.371,2.824,2.824,0,0,1-2.059-.682,2.968,2.968,0,0,1-.693-2.192Zm-13.225,7.326a6.545,6.545,0,0,1-.215-1.676,6.335,6.335,0,0,1,.215-1.64,4.706,4.706,0,0,1,.647-1.436,3.312,3.312,0,0,1,1.09-1.017,3.3,3.3,0,0,1,3.088,0,3.471,3.471,0,0,1,1.1,1.017,4.546,4.546,0,0,1,.657,1.449,6.446,6.446,0,0,1,0,3.3,4.543,4.543,0,0,1-.657,1.449,3.562,3.562,0,0,1-1.1,1.029,2.931,2.931,0,0,1-1.545.4,2.887,2.887,0,0,1-1.52-.4,3.734,3.734,0,0,1-1.113-1.017,4.829,4.829,0,0,1-.647-1.461m3.28,4.358a5.017,5.017,0,0,0,2.322-.514,4.959,4.959,0,0,0,1.666-1.352,5.947,5.947,0,0,0,.993-1.916,7.4,7.4,0,0,0,0-4.406,5.942,5.942,0,0,0-.993-1.914,4.965,4.965,0,0,0-1.666-1.354,5.02,5.02,0,0,0-2.322-.514,5.111,5.111,0,0,0-2.335.5,4.982,4.982,0,0,0-1.663,1.341,5.6,5.6,0,0,0-.993,1.9,7.494,7.494,0,0,0,.011,4.406,5.838,5.838,0,0,0,1,1.939,5.192,5.192,0,0,0,1.653,1.377,5.125,5.125,0,0,0,2.322.5m-15.586-2.2a4.379,4.379,0,0,0,4.19,2.2,5.566,5.566,0,0,0,1.629-.227,3.823,3.823,0,0,0,1.28-.659,3.086,3.086,0,0,0,.851-1.065,3.257,3.257,0,0,0,.311-1.449,3.062,3.062,0,0,0-.815-2.227,6.092,6.092,0,0,0-2.393-1.389c-.559-.191-1.019-.363-1.377-.514a4.993,4.993,0,0,1-.874-.455,1.31,1.31,0,0,1-.466-.5,1.434,1.434,0,0,1-.133-.634,1.2,1.2,0,0,1,.491-.97,2.354,2.354,0,0,1,1.5-.394,2.807,2.807,0,0,1,1.461.383,4.336,4.336,0,0,1,1.126.957l1.293-1.029a4.432,4.432,0,0,0-1.581-1.33,5.168,5.168,0,0,0-2.324-.467,4.264,4.264,0,0,0-2.693.79,2.6,2.6,0,0,0-1.017,2.179,3.23,3.23,0,0,0,.179,1.124,2.389,2.389,0,0,0,.564.863,4.15,4.15,0,0,0,.981.707,9.2,9.2,0,0,0,1.461.61q.789.288,1.341.539a4.513,4.513,0,0,1,.9.527,1.671,1.671,0,0,1,.5.623,2.073,2.073,0,0,1,.156.85q0,1.676-2.347,1.676a3.072,3.072,0,0,1-1.712-.419,3.174,3.174,0,0,1-1.042-1.185Zm-9.62-5.339a3.8,3.8,0,0,1,1.136-2.288A3.005,3.005,0,0,1,463,116.3a3.281,3.281,0,0,1,1.053.179,2.653,2.653,0,0,1,.933.55,2.928,2.928,0,0,1,.671.935,3.3,3.3,0,0,1,.288,1.3Zm8.141,1.459a8.654,8.654,0,0,0-.312-2.381,5.277,5.277,0,0,0-.933-1.868,4.237,4.237,0,0,0-1.568-1.21,5.334,5.334,0,0,0-2.215-.431,5.108,5.108,0,0,0-2.1.419,4.439,4.439,0,0,0-1.605,1.2,5.7,5.7,0,0,0-1.029,1.869,7.564,7.564,0,0,0-.371,2.453,7.836,7.836,0,0,0,.4,2.611,5.063,5.063,0,0,0,1.124,1.88,4.822,4.822,0,0,0,1.76,1.147,6.412,6.412,0,0,0,2.322.4,4.531,4.531,0,0,0,2.67-.705,5.6,5.6,0,0,0,1.617-1.785l-1.221-.813a4.223,4.223,0,0,1-1.2,1.293,3.071,3.071,0,0,1-1.819.526,3.438,3.438,0,0,1-2.85-1.221,5.244,5.244,0,0,1-.983-3.377Zm-20.47-8.5h3.257a3.6,3.6,0,0,1,2.345.67,2.48,2.48,0,0,1,.815,2.035q0,2.97-3.329,2.969h-3.088Zm0,14.318v-6.992h2.322l4.31,6.992h2.179l-4.358-7.112a6.208,6.208,0,0,0,1.569-.478,4.312,4.312,0,0,0,1.269-.874,3.714,3.714,0,0,0,.838-1.316,5.109,5.109,0,0,0,.3-1.832,4.146,4.146,0,0,0-1.268-3.16,5.6,5.6,0,0,0-3.952-1.2h-5.124v15.971Z" transform="translate(-345.353 -81.953)" fill="#fff"/><path d="M513.755,6.3h-1.844V22.271h1.844Zm-7.041,13.552a5.822,5.822,0,0,1-1.257.827,3.455,3.455,0,0,1-1.545.348,2.888,2.888,0,0,1-.779-.11,1.988,1.988,0,0,1-.716-.358,2.053,2.053,0,0,1-.539-.634,1.864,1.864,0,0,1-.215-.933,1.953,1.953,0,0,1,.49-1.389,3.174,3.174,0,0,1,1.246-.8,7,7,0,0,1,1.64-.37q.885-.1,1.676-.12Zm1.844,2.419V14.825a4.289,4.289,0,0,0-1.067-3.28,4.23,4.23,0,0,0-2.981-.983,5.617,5.617,0,0,0-2.383.444,4.314,4.314,0,0,0-1.64,1.377l1.293.909a3.469,3.469,0,0,1,1.114-.922,3.075,3.075,0,0,1,1.449-.347,2.35,2.35,0,0,1,1.758.623,2.871,2.871,0,0,1,.611,2.059v.143a15.425,15.425,0,0,0-2.37.191,8.4,8.4,0,0,0-2.227.659,4.742,4.742,0,0,0-1.666,1.257,3.04,3.04,0,0,0-.657,2.011,3.454,3.454,0,0,0,.335,1.558A3.366,3.366,0,0,0,501,21.637a3.753,3.753,0,0,0,1.244.671,4.723,4.723,0,0,0,1.449.227,4.424,4.424,0,0,0,1.712-.322,4.248,4.248,0,0,0,1.377-.922l.1.981Zm-14.18,0V13.388a7.227,7.227,0,0,1,1.09-.79,2.542,2.542,0,0,1,1.329-.383,3.793,3.793,0,0,1,1.509.263l.335-1.7a5.449,5.449,0,0,0-.683-.143,6.108,6.108,0,0,0-.968-.072,2.914,2.914,0,0,0-1.461.408,4.931,4.931,0,0,0-1.173.886l-.145-1.006h-1.676V22.271ZM481.327,10.85h-1.844v7.23a4.793,4.793,0,0,0,1.017,3.352,4.261,4.261,0,0,0,3.269,1.1,5.762,5.762,0,0,0,2.036-.311,6.124,6.124,0,0,0,1.507-.838l.12.886h1.7V10.85h-1.868v8.93a4.691,4.691,0,0,1-1.423.9,4.468,4.468,0,0,1-1.76.371,2.818,2.818,0,0,1-2.059-.682,2.961,2.961,0,0,1-.7-2.192Zm-7.12,1.507h3.017V10.85h-2.994V7.736h-1.844V10.85h-1.962v1.507h1.962v7.495a2.663,2.663,0,0,0,.7,2.023,2.772,2.772,0,0,0,1.987.659,3.818,3.818,0,0,0,1.52-.24,5.682,5.682,0,0,0,1.089-.646l-.718-1.244a3.731,3.731,0,0,1-.743.454,2,2,0,0,1-.861.192,1.231,1.231,0,0,1-.827-.276,1.446,1.446,0,0,1-.322-1.114Zm-7.489,7.495a5.816,5.816,0,0,1-1.257.827,3.449,3.449,0,0,1-1.545.348,2.867,2.867,0,0,1-.777-.11,2.009,2.009,0,0,1-.718-.358,2.052,2.052,0,0,1-.539-.634,1.861,1.861,0,0,1-.217-.933,1.953,1.953,0,0,1,.491-1.389,3.16,3.16,0,0,1,1.246-.8,7,7,0,0,1,1.64-.37c.59-.064,1.15-.1,1.676-.12Zm1.844,2.419V14.825a4.3,4.3,0,0,0-1.065-3.28,4.235,4.235,0,0,0-2.981-.983,5.607,5.607,0,0,0-2.383.444,4.316,4.316,0,0,0-1.64,1.377l1.292.909a3.486,3.486,0,0,1,1.114-.922,3.073,3.073,0,0,1,1.448-.347,2.349,2.349,0,0,1,1.76.623,2.864,2.864,0,0,1,.611,2.059v.143a15.459,15.459,0,0,0-2.371.191,8.46,8.46,0,0,0-2.227.659,4.728,4.728,0,0,0-1.663,1.257,3.04,3.04,0,0,0-.659,2.011,3.451,3.451,0,0,0,.335,1.558,3.363,3.363,0,0,0,.874,1.112,3.749,3.749,0,0,0,1.246.671,4.7,4.7,0,0,0,1.448.227,4.419,4.419,0,0,0,1.712-.322,4.224,4.224,0,0,0,1.375-.922l.1.981Zm-21.027,0V9.6l8.573,12.667h1.412V6.3h-1.891V18.2L447.582,6.3h-1.939V22.271Z" transform="translate(-345.357)" fill="#fff"/><path d="M45.329,298.681h0v-25.29H6.206v25.29Z" transform="translate(0 -209.909)" fill="#fff"/><path d="M6.208,6.353V60.944L41.036,35.5a10.565,10.565,0,0,0,4.3-8.538V6.353Z" transform="translate(-0.002 -0.042)" fill="#fff"/><path d="M204.824,6.353a0,0,0,0,0,0,0V31.643h39.125V6.353Z" transform="translate(-156.094 -0.042)" fill="#fff"/><path d="M209.121,162.068a10.572,10.572,0,0,0-4.3,8.538v20.608h39.123V136.623Z" transform="translate(-156.097 -102.422)" fill="#fff"/></g></svg>