<svg xmlns="http://www.w3.org/2000/svg" width="80" height="80" viewBox="0 0 80 80">
  <g id="Grupo_14" data-name="Grupo 14" transform="translate(-696 -1006)">
    <g id="oil" transform="translate(661.282 1017.119)">
      <path id="Caminho_1" data-name="Caminho 1" d="M206.533,56.183c-1.891-2.662-3.677-5.176-5.213-7.6l-.673-1.064-.673,1.064c-1.355,2.142-2.945,4.406-4.329,6.36l1.3.921c1.174-1.656,2.494-3.534,3.7-5.383,1.395,2.134,2.952,4.327,4.587,6.629,5.487,7.724,11.161,15.711,11.161,22.312A15.731,15.731,0,0,1,190.473,91.5l-1.033,1.213a17.324,17.324,0,0,0,28.548-13.295C217.988,72.308,212.165,64.11,206.533,56.183Z" transform="translate(-121.308 -42.468)" fill="#ff5638"/>
      <path id="Caminho_2" data-name="Caminho 2" d="M134.074,300.055l-1.518-.482a17.111,17.111,0,0,0-.878,5.134,17.37,17.37,0,0,0,4.918,12.153l1.144-1.109a15.785,15.785,0,0,1-4.468-11.045A15.539,15.539,0,0,1,134.074,300.055Z" transform="translate(-69.68 -267.758)" fill="#ff5638"/>
      <path id="Caminho_3" data-name="Caminho 3" d="M405.749,317.916h1.593v1.593h-1.593Z" transform="translate(-314.645 -284.153)" fill="#ff5638"/>
      <path id="Caminho_4" data-name="Caminho 4" d="M294.523,360.536l.094,1.59a14.208,14.208,0,0,0,13.312-14.211h-1.593A12.614,12.614,0,0,1,294.523,360.536Z" transform="translate(-215.231 -310.966)" fill="#ff5638"/>
      <path id="Caminho_5" data-name="Caminho 5" d="M58.485,26.451l-1.037,1.21a10.608,10.608,0,0,0,17.506-8.117c0-4.323-3.487-9.233-6.86-13.98-1.12-1.576-2.178-3.066-3.085-4.5L64.336,0l-.673,1.064c-.907,1.434-1.965,2.923-3.085,4.5-3.373,4.748-6.86,9.657-6.86,13.98a10.7,10.7,0,0,0,2.519,6.9l1.217-1.028a9.1,9.1,0,0,1-2.143-5.868c0-3.815,3.338-8.514,6.565-13.057.868-1.222,1.7-2.393,2.459-3.535.76,1.142,1.591,2.312,2.459,3.534,3.228,4.544,6.566,9.242,6.566,13.058a9.015,9.015,0,0,1-14.876,6.907Z" transform="translate(0 0)" fill="#ff5638"/>
      <path id="Caminho_6" data-name="Caminho 6" d="M155.811,196.6l.157,1.585a6.7,6.7,0,0,0,6.254-6.657h-1.593A5.075,5.075,0,0,1,155.811,196.6Z" transform="translate(-91.251 -171.187)" fill="#ff5638"/>
      <path id="Caminho_7" data-name="Caminho 7" d="M201.174,161.527h1.593v1.593h-1.593Z" transform="translate(-131.796 -144.373)" fill="#ff5638"/>
    </g>
    <g id="Elipse_1" data-name="Elipse 1" transform="translate(696 1006)" fill="none" stroke="#ff5638" stroke-width="3">
      <circle cx="40" cy="40" r="40" stroke="none"/>
      <circle cx="40" cy="40" r="38.5" fill="none"/>
    </g>
  </g>
</svg>
