<svg xmlns="http://www.w3.org/2000/svg" width="57.855" height="43.163" viewBox="0 0 57.855 43.163"><g transform="translate(-1115.782 -1894.765)"><path d="M21.113,45.6a1.38,1.38,0,0,0-1.4-1.4H14.1a1.38,1.38,0,0,0-1.4,1.4V60.721h8.413Z" transform="translate(1109.3 1868.61)" fill="#ff5537"/><path d="M41.413,35.7a1.38,1.38,0,0,0-1.4-1.4H34.4A1.38,1.38,0,0,0,33,35.7V56.857h8.413Z" transform="translate(1101.376 1872.475)" fill="#ff5537"/><path d="M61.613,25.8a1.38,1.38,0,0,0-1.4-1.4H54.6a1.38,1.38,0,0,0-1.4,1.4v27.19h8.413Z" transform="translate(1093.49 1876.339)" fill="#ff5537"/><path d="M81.913,16a1.38,1.38,0,0,0-1.4-1.4H74.9A1.38,1.38,0,0,0,73.5,16V49.167h8.413Z" transform="translate(1085.566 1880.165)" fill="#ff5537"/><path d="M58.1,77.8H4.817a2.317,2.317,0,0,0,0,4.633H58.038a2.316,2.316,0,0,0,2.317-2.317A2.264,2.264,0,0,0,58.1,77.8Z" transform="translate(1113.282 1855.494)" fill="#ff5537"/></g></svg>